# AST/ASF file generated using VICON BodyLanguage
# -----------------------------------------------
:version 1.10
:name VICON
:units
  mass 1.0
  length 0.45
  angle deg
:documentation
   .ast/.asf automatically generated from VICON data using
   VICON BodyBuilder and BodyLanguage model FoxedUp or BRILLIANT.MOD
:root
   order TX TY TZ RX RY RZ
   axis XYZ
   position 0 0 0  
   orientation 0 0 0 
:bonedata
  begin
     id 1 
     name lhipjoint
     direction 0.612567 -0.751349 0.245431 
     length 2.42285 
     axis 0 0 0  XYZ
  end
  begin
     id 2 
     name lfemur
     direction 0.34202 -0.939693 0  
     length 7.11304  
     axis 0 0 20  XYZ
    dof rx ry rz
    limits (-160.0 20.0)
           (-70.0 70.0)
           (-60.0 70.0)
  end
  begin
     id 3 
     name ltibia
     direction 0.34202 -0.939693 0   
     length 7.84529   
     axis 0 0 20   XYZ
    dof rx
    limits (-10.0 170.0)
  end
  begin
     id 4 
     name lfoot
     direction 0.0779239 -0.214094 0.9737   
     length 1.97176   
     axis -90 7.62852e-016 20   XYZ
    dof rx rz
    limits (-45.0 90.0)
           (-70.0 20.0)
  end
  begin
     id 5 
     name ltoes
     direction 1.53565e-011 -4.21709e-011 1   
     length 0.993197   
     axis -90 7.62852e-016 20   XYZ
    dof rx
    limits (-90.0 20.0)
  end
  begin
     id 6 
     name rhipjoint
     direction -0.665722 -0.709315 0.231701   
     length 2.56642  
     axis 0 0 0  XYZ 
  end
  begin
     id 7 
     name rfemur
     direction -0.34202 -0.939693 0   
     length 7.32108   
     axis 0 0 -20   XYZ
    dof rx ry rz
    limits (-160.0 20.0)
           (-70.0 70.0)
           (-70.0 60.0)
  end
  begin
     id 8 
     name rtibia
     direction -0.34202 -0.939693 0   
     length 7.81254   
     axis 0 0 -20   XYZ
    dof rx
    limits (-10.0 170.0)
 end
 begin
     id 9 
     name rfoot
     direction -0.0832806 -0.228812 0.969902   
     length 2.08278  
     axis -90 -7.62852e-016 -20   XYZ
    dof rx rz
    limits (-45.0 90.0)
           (-20.0 70.0)
  end
  begin
     id 10 
     name rtoes
     direction -1.53589e-011 -4.22086e-011 1   
     length 1.04609   
     axis -90 -7.62852e-016 -20   XYZ
    dof rx
    limits (-90.0 20.0)
  end
  begin
     id 11 
     name lowerback
     direction -0.00506013 0.988403 -0.151766   
     length 2.01978   
     axis 0 0 0   XYZ
    dof rx ry rz
    limits (-20.0 45.0)
           (-30.0 30.0)
           (-30.0 30.0)
  end
  begin
     id 12 
     name upperback
     direction -0.00836389 0.99968 0.0238859   
     length 2.01276   
     axis 0 0 0   XYZ
    dof rx ry rz
    limits (-20.0 45.0)
           (-30.0 30.0)
           (-30.0 30.0)
  end
  begin
     id 13 
     name thorax
     direction -0.00684136 0.995386 0.0957043   
     length 2.07303   
     axis 0 0 0   XYZ
    dof rx ry rz
    limits (-20.0 45.0)
           (-30.0 30.0)
           (-30.0 30.0)
  end
  begin
     id 14 
     name lowerneck
     direction -0.0161045 0.999661 0.0204485   
     length 1.91243   
     axis 0 0 0   XYZ
    dof rx ry rz
    limits (-20.0 45.0)
           (-30.0 30.0)
           (-30.0 30.0)
  end
  begin
     id 15 
     name upperneck
     direction 0.0553583 0.990946 -0.122319   
     length 1.91574   
     axis 0 0 0   XYZ
    dof rx ry rz
    limits (-20.0 45.0)
           (-30.0 30.0)
           (-30.0 30.0)
  end
  begin
     id 16
     name head
     direction 0.0180273 0.998839 -0.0446756  
     length 1.92693  
     axis 0 0 0   XYZ
    dof rx ry rz
    limits (-20.0 45.0)
           (-30.0 30.0)
           (-30.0 30.0)
  end
  begin
     id 17 
     name lclavicle
     direction 0.945646 0.319323 -0.0615358  
     length 4.0076  
     axis 0 0 0   XYZ
    dof ry rz
    limits (-20.0 10.0)
           (0.0 20.0)
  end
  begin
     id 18 
     name lhumerus
     direction 1 -4.48967e-011 -2.79996e-027   
     length 5.64147   
     axis 180 -30 -90   XYZ
    dof rx ry rz
    limits (-60.0 90.0)
           (-90.0 90.0)
           (-90.0 90.0)
  end
  begin
     id 19
     name lradius
     direction 1 -4.48976e-011 -9.5122e-027   
     length 2.86444   
     axis 180 -30 -90   XYZ
    dof rx
    limits (-10.0 170.0)
  end
  begin
     id 20
     name lwrist
     direction 1 -4.48983e-011 -1.24047e-026   
     length 1.43222   
     axis 9.05591e-015 90 90   XYZ
    dof ry
    limits (-180.0 0.0)
 end
  begin
     id 21 
     name lhand
     direction 1 -4.4892e-011 -2.48094e-026   
     length 0.722123   
     axis 1.58305e-014 90 90   XYZ
    dof rx rz
    limits (-90.0 90.0)
           (-45.0 45.0)
  end
  begin
     id 22 
     name lfingers
     direction 1 -4.48895e-011 -4.96187e-026   
     length 0.582194   
     axis 3.1661e-014 90 90   XYZ
    dof rx
    limits (0.0 90.0)
  end
  begin
     id 23
     name lthumb
     direction 0.707107 -6.34961e-011 0.707107   
     length 0.835918   
     axis -90 45 2.85299e-015   XYZ
    dof rx rz
    limits (-45.0 45.0)
           (-45.0 45.0)
  end
  begin
     id 24 
     name rclavicle
     direction -0.932635 0.324218 -0.15835   
     length 3.65819  
     axis 0 0 0   XYZ 
    dof ry rz
    limits (-10.0 20.0)
           (-20.0 0.0)
  end
  begin
     id 25 
     name rhumerus
     direction -1 -4.48965e-011 -4.02296e-027  
     length 5.44729   
     axis 180 30 90   XYZ
    dof rx ry rz
    limits (-90.0 60.0)
           (-90.0 90.0)
           (-90.0 90.0)
  end
  begin
     id 26 
     name rradius
     direction -1 -4.48957e-011 -8.81087e-027   
     length 3.08821   
     axis 180 30 90   XYZ
    dof rx
    limits (-10.0 170.0)
  end
  begin
     id 27 
     name rwrist
     direction -1 -4.49015e-011 -1.24047e-026   
     length 1.5441   
     axis 9.05591e-015 -90 -90   XYZ
    dof ry
    limits (-180.0 0.0)
  end
  begin
     id 28
     name rhand
     direction -1 -4.4891e-011 -2.48094e-026   
     length 0.821049   
     axis 1.58305e-014 -90 -90   XYZ
    dof rx rz
    limits (-90.0 90.0)
           (-45.0 45.0)
  end
  begin
     id 29
     name rfingers
     direction -1 -4.48985e-011 -4.96187e-026   
     length 0.661951   
     axis 3.1661e-014 -90 -90   XYZ
    dof rx
    limits (0.0 90.0)
  end
  begin
     id 30
     name rthumb
     direction -0.707107 -6.34906e-011 0.707107   
     length 0.950433   
     axis -90 -45 -2.85299e-015   XYZ
    dof rx rz
    limits (-45.0 45.0)
           (-45.0 45.0)
  end
:hierarchy
  begin
    root lhipjoint rhipjoint lowerback
    lhipjoint lfemur
    lfemur ltibia
    ltibia lfoot
    lfoot ltoes
    rhipjoint rfemur
    rfemur rtibia
    rtibia rfoot
    rfoot rtoes
    lowerback upperback
    upperback thorax
    thorax lowerneck lclavicle rclavicle
    lowerneck upperneck
    upperneck head
    lclavicle lhumerus
    lhumerus lradius
    lradius lwrist
    lwrist lhand lthumb
    lhand lfingers
    rclavicle rhumerus
    rhumerus rradius
    rradius rwrist
    rwrist rhand rthumb
    rhand rfingers
  end

#!OML:ASF F:\VICON\USERDATA\INSTALL\rory3\rory3.ASF
:FULLY-SPECIFIED
:DEGREES
1884
root 3.19371 17.6977 0.15335 497.914 90.4181 500.467
lowerback 7.17624 0.331144 2.69698
upperback 0.478894 0.635659 -1.04732
thorax -3.48883 0.273722 -2.66488
lowerneck -3.22296 -5.17879 -5.05814
upperneck 2.73924 -6.98165 8.85972
head 2.00734 -3.35457 3.58914
rclavicle 1.30452e-016 8.54774e-015
rhumerus -36.1891 6.61555 -86.4471
rradius 66.3028
rwrist 2.19813
rhand -12.3879 4.62226
rfingers 7.12502
rthumb 13.6832 -24.9079
lclavicle 1.30452e-016 8.54774e-015
lhumerus -33.8924 -18.396 90.6063
lradius 61.2578
lwrist 47.7599
lhand -20.9054 5.05284
lfingers 7.12502
lthumb 5.46572 34.9624
rfemur 2.41614 0.681621 18.9771
rtibia 14.8071
rfoot -17.8852 -7.30101
rtoes -8.15952
lfemur 3.14885 1.39365 -16.1611
ltibia 8.68631
lfoot -9.48121 -0.918343
ltoes -4.92317
1885
root 3.18519 17.7016 0.155529 484.84 90.5062 487.395
lowerback 7.2196 0.333385 2.81942
upperback 0.476353 0.650745 -1.0173
thorax -3.51382 0.279042 -2.70489
lowerneck -3.27709 -5.20859 -5.10991
upperneck 2.85412 -7.02693 8.91039
head 2.06391 -3.37362 3.61335
rclavicle 7.56624e-015 -2.98177e-015
rhumerus -35.5365 7.05521 -86.3455
rradius 68.0779
rwrist 1.18392
rhand -12.8308 4.24184
rfingers 7.12502
rthumb 13.2563 -25.3166
lclavicle 7.56624e-015 -2.98177e-015
lhumerus -33.3507 -18.644 90.4272
lradius 63.1868
lwrist 48.3555
lhand -21.1879 5.17976
lfingers 7.12502
lthumb 5.19296 35.0961
rfemur 2.33685 0.741267 19.1276
rtibia 14.9038
rfoot -17.959 -7.27308
rtoes -7.50079
lfemur 3.23151 1.37496 -15.9954
ltibia 8.45902
lfoot -9.30562 -0.89895
ltoes -5.10392
1886
root 3.17934 17.7047 0.156259 480.543 90.5596 483.131
lowerback 7.24921 0.350614 2.90647
upperback 0.480343 0.681269 -1.02922
thorax -3.52312 0.292723 -2.7698
lowerneck -3.24966 -5.24163 -5.08213
upperneck 2.90503 -7.07643 8.91278
head 2.07848 -3.39755 3.60726
rclavicle -2.15557e-015 -5.36719e-015
rhumerus -34.8156 7.3991 -86.2328
rradius 69.7459
rwrist 0.256916
rhand -13.2919 3.90063
rfingers 7.12502
rthumb 12.8119 -25.6862
lclavicle -2.15557e-015 -5.36719e-015
lhumerus -32.73 -18.9661 90.2052
lradius 64.9738
lwrist 49.161
lhand -21.4447 5.1461
lfingers 7.12502
lthumb 4.94495 35.0684
rfemur 2.33855 0.785277 19.1903
rtibia 14.9303
rfoot -18.0122 -7.22124
rtoes -6.54041
lfemur 3.28903 1.37125 -15.9143
ltibia 8.3759
lfoot -9.24656 -0.884143
ltoes -5.26856
1887
root 3.17368 17.7081 0.156791 487.234 90.5246 489.863
lowerback 7.2758 0.388058 2.84671
upperback 0.502012 0.725692 -1.07591
thorax -3.51259 0.316129 -2.78922
lowerneck -3.23073 -5.25985 -5.02764
upperneck 2.9295 -7.10525 8.92185
head 2.08328 -3.41076 3.59919
rclavicle 3.59055e-015 2.38542e-015
rhumerus -34.0138 7.70386 -86.083
rradius 71.3272
rwrist -0.51744
rhand -13.602 3.61576
rfingers 7.12502
rthumb 12.5129 -25.9896
lclavicle 3.59055e-015 2.38542e-015
lhumerus -31.9579 -19.1761 89.8892
lradius 66.6579
lwrist 49.9901
lhand -21.5176 5.09773
lfingers 7.12502
lthumb 4.87459 35.0217
rfemur 2.38329 0.869903 19.1157
rtibia 14.9016
rfoot -18.0325 -7.22465
rtoes -5.97606
lfemur 3.27735 1.40574 -15.9867
ltibia 8.46242
lfoot -9.27592 -0.911758
ltoes -5.04609
1888
root 3.166 17.7041 0.157637 488.324 90.5374 490.951
lowerback 7.29543 0.418077 2.85115
upperback 0.48804 0.765816 -1.09742
thorax -3.53497 0.335237 -2.81854
lowerneck -3.20283 -5.26233 -5.03621
upperneck 2.98296 -7.11455 8.9941
head 2.10086 -3.41337 3.62629
rclavicle -1.50331e-015 -5.1684e-015
rhumerus -33.1377 8.04831 -85.9071
rradius 72.7948
rwrist -1.30663
rhand -13.8659 3.34196
rfingers 7.12502
rthumb 12.2584 -26.2788
lclavicle -1.50331e-015 -5.1684e-015
lhumerus -31.1394 -19.3727 89.5871
lradius 68.2727
lwrist 50.7431
lhand -21.7807 5.32383
lfingers 7.12502
lthumb 4.62052 35.2534
rfemur 2.37514 0.80347 19.1351
rtibia 14.841
rfoot -17.8947 -7.32287
rtoes -7.2403
lfemur 3.15026 1.42533 -15.9811
ltibia 8.64241
lfoot -9.32707 -0.927892
ltoes -4.87352
1889
root 3.15816 17.6999 0.158287 484.011 90.5945 486.673
lowerback 7.34964 0.423092 2.92894
upperback 0.476632 0.780431 -1.09733
thorax -3.57518 0.340368 -2.86479
lowerneck -3.14134 -5.24761 -5.05417
upperneck 3.0107 -7.09916 9.04804
head 2.10128 -3.40556 3.65068
rclavicle -4.83295e-015 3.37934e-015
rhumerus -32.1271 8.44049 -85.7462
rradius 74.0464
rwrist -2.02122
rhand -14.1664 3.11812
rfingers 7.12502
rthumb 11.9686 -26.5197
lclavicle -4.83295e-015 3.37934e-015
lhumerus -30.2821 -19.6504 89.3146
lradius 69.8327
lwrist 51.5499
lhand -22.2578 5.37731
lfingers 7.12502
lthumb 4.15978 35.3164
rfemur 2.43206 0.738343 19.2289
rtibia 14.7336
rfoot -17.7216 -7.40935
rtoes -8.24788
lfemur 3.00581 1.42598 -15.902
ltibia 8.93262
lfoot -9.4059 -0.962523
ltoes -4.55012
